<mxfile host="65bd71144e">
    <diagram id="2EfT8p-tZDn7QkErUN7B" name="scheduler">
        <mxGraphModel dx="1445" dy="626" grid="1" gridSize="10" guides="1" tooltips="1" connect="1" arrows="1" fold="1" page="1" pageScale="1" pageWidth="850" pageHeight="1100" math="0" shadow="0">
            <root>
                <mxCell id="0"/>
                <mxCell id="1" parent="0"/>
                <mxCell id="ucQWb4brr_EQeHKzHJWq-1" value="&lt;b&gt;ON&lt;/b&gt;&lt;div&gt;&lt;font style=&quot;font-size: 8px;&quot;&gt;(13 read, 6 sent)&lt;/font&gt;&lt;/div&gt;" style="rounded=0;whiteSpace=wrap;html=1;" vertex="1" parent="1">
                    <mxGeometry x="200" y="240" width="80" height="40" as="geometry"/>
                </mxCell>
                <mxCell id="ucQWb4brr_EQeHKzHJWq-3" value="&lt;span style=&quot;color: rgb(0, 0, 0);&quot;&gt;&lt;b&gt;OFF&lt;/b&gt;&lt;/span&gt;&lt;div&gt;&lt;font style=&quot;font-size: 8px;&quot;&gt;(0 read, 0 sent)&lt;/font&gt;&lt;/div&gt;" style="rounded=0;whiteSpace=wrap;html=1;" vertex="1" parent="1">
                    <mxGeometry x="280" y="240" width="80" height="40" as="geometry"/>
                </mxCell>
                <mxCell id="ucQWb4brr_EQeHKzHJWq-10" value="" style="endArrow=classic;html=1;" edge="1" parent="1">
                    <mxGeometry width="50" height="50" relative="1" as="geometry">
                        <mxPoint x="200" y="230" as="sourcePoint"/>
                        <mxPoint x="200" y="200" as="targetPoint"/>
                    </mxGeometry>
                </mxCell>
                <mxCell id="ucQWb4brr_EQeHKzHJWq-15" value="Scheduler:&lt;div&gt;Turn On&lt;/div&gt;" style="text;html=1;align=center;verticalAlign=middle;whiteSpace=wrap;rounded=0;" vertex="1" parent="1">
                    <mxGeometry x="170" y="170" width="60" height="30" as="geometry"/>
                </mxCell>
                <mxCell id="ucQWb4brr_EQeHKzHJWq-16" value="Scheduler:&lt;div&gt;Turn Off&lt;/div&gt;" style="text;html=1;align=center;verticalAlign=middle;whiteSpace=wrap;rounded=0;" vertex="1" parent="1">
                    <mxGeometry x="250" y="170" width="60" height="30" as="geometry"/>
                </mxCell>
                <mxCell id="ucQWb4brr_EQeHKzHJWq-17" value="" style="endArrow=classic;html=1;" edge="1" parent="1">
                    <mxGeometry width="50" height="50" relative="1" as="geometry">
                        <mxPoint x="280" y="230" as="sourcePoint"/>
                        <mxPoint x="280" y="200" as="targetPoint"/>
                    </mxGeometry>
                </mxCell>
                <mxCell id="ucQWb4brr_EQeHKzHJWq-18" value="&lt;b&gt;ON&lt;/b&gt;&lt;div&gt;&lt;font style=&quot;font-size: 8px;&quot;&gt;(13 read, 6 sent)&lt;/font&gt;&lt;/div&gt;" style="rounded=0;whiteSpace=wrap;html=1;" vertex="1" parent="1">
                    <mxGeometry x="360" y="240" width="80" height="40" as="geometry"/>
                </mxCell>
                <mxCell id="ucQWb4brr_EQeHKzHJWq-19" value="&lt;span style=&quot;color: rgb(0, 0, 0);&quot;&gt;&lt;b&gt;OFF&lt;/b&gt;&lt;/span&gt;&lt;div&gt;&lt;font style=&quot;font-size: 8px;&quot;&gt;(0 read, 0 sent)&lt;/font&gt;&lt;/div&gt;" style="rounded=0;whiteSpace=wrap;html=1;" vertex="1" parent="1">
                    <mxGeometry x="440" y="240" width="80" height="40" as="geometry"/>
                </mxCell>
                <mxCell id="ucQWb4brr_EQeHKzHJWq-20" value="" style="endArrow=classic;html=1;" edge="1" parent="1">
                    <mxGeometry width="50" height="50" relative="1" as="geometry">
                        <mxPoint x="360" y="230" as="sourcePoint"/>
                        <mxPoint x="360" y="200" as="targetPoint"/>
                    </mxGeometry>
                </mxCell>
                <mxCell id="ucQWb4brr_EQeHKzHJWq-21" value="Scheduler:&lt;div&gt;Turn On&lt;/div&gt;" style="text;html=1;align=center;verticalAlign=middle;whiteSpace=wrap;rounded=0;" vertex="1" parent="1">
                    <mxGeometry x="330" y="170" width="60" height="30" as="geometry"/>
                </mxCell>
                <mxCell id="ucQWb4brr_EQeHKzHJWq-22" value="Scheduler:&lt;div&gt;Turn Off&lt;/div&gt;" style="text;html=1;align=center;verticalAlign=middle;whiteSpace=wrap;rounded=0;" vertex="1" parent="1">
                    <mxGeometry x="410" y="170" width="60" height="30" as="geometry"/>
                </mxCell>
                <mxCell id="ucQWb4brr_EQeHKzHJWq-23" value="" style="endArrow=classic;html=1;" edge="1" parent="1">
                    <mxGeometry width="50" height="50" relative="1" as="geometry">
                        <mxPoint x="440" y="230" as="sourcePoint"/>
                        <mxPoint x="440" y="200" as="targetPoint"/>
                    </mxGeometry>
                </mxCell>
                <mxCell id="ucQWb4brr_EQeHKzHJWq-24" value="&lt;span style=&quot;color: rgb(0, 0, 0);&quot;&gt;&lt;b&gt;OFF&lt;/b&gt;&lt;/span&gt;&lt;div&gt;&lt;font style=&quot;font-size: 8px;&quot;&gt;(0 read, 0 sent)&lt;/font&gt;&lt;/div&gt;" style="rounded=0;whiteSpace=wrap;html=1;" vertex="1" parent="1">
                    <mxGeometry x="600" y="240" width="80" height="40" as="geometry"/>
                </mxCell>
                <mxCell id="ucQWb4brr_EQeHKzHJWq-25" value="" style="endArrow=classic;html=1;" edge="1" parent="1">
                    <mxGeometry width="50" height="50" relative="1" as="geometry">
                        <mxPoint x="600" y="230" as="sourcePoint"/>
                        <mxPoint x="600" y="200" as="targetPoint"/>
                    </mxGeometry>
                </mxCell>
                <mxCell id="ucQWb4brr_EQeHKzHJWq-26" value="&lt;b&gt;ON&lt;/b&gt;&lt;div&gt;&lt;font style=&quot;font-size: 8px;&quot;&gt;(13 read, 6 sent)&lt;/font&gt;&lt;/div&gt;" style="rounded=0;whiteSpace=wrap;html=1;" vertex="1" parent="1">
                    <mxGeometry x="520" y="240" width="80" height="40" as="geometry"/>
                </mxCell>
                <mxCell id="ucQWb4brr_EQeHKzHJWq-27" value="Scheduler:&lt;div&gt;Turn Off&lt;/div&gt;" style="text;html=1;align=center;verticalAlign=middle;whiteSpace=wrap;rounded=0;" vertex="1" parent="1">
                    <mxGeometry x="570" y="170" width="60" height="30" as="geometry"/>
                </mxCell>
                <mxCell id="ucQWb4brr_EQeHKzHJWq-28" value="" style="endArrow=classic;html=1;" edge="1" parent="1">
                    <mxGeometry width="50" height="50" relative="1" as="geometry">
                        <mxPoint x="520" y="230" as="sourcePoint"/>
                        <mxPoint x="520" y="200" as="targetPoint"/>
                    </mxGeometry>
                </mxCell>
                <mxCell id="ucQWb4brr_EQeHKzHJWq-29" value="Scheduler:&lt;div&gt;Turn On&lt;/div&gt;" style="text;html=1;align=center;verticalAlign=middle;whiteSpace=wrap;rounded=0;" vertex="1" parent="1">
                    <mxGeometry x="490" y="170" width="60" height="30" as="geometry"/>
                </mxCell>
                <mxCell id="ucQWb4brr_EQeHKzHJWq-36" value="0m" style="text;html=1;align=center;verticalAlign=middle;whiteSpace=wrap;rounded=0;" vertex="1" parent="1">
                    <mxGeometry x="170" y="280" width="60" height="30" as="geometry"/>
                </mxCell>
                <mxCell id="ucQWb4brr_EQeHKzHJWq-37" value="1m" style="text;html=1;align=center;verticalAlign=middle;whiteSpace=wrap;rounded=0;" vertex="1" parent="1">
                    <mxGeometry x="250" y="280" width="60" height="30" as="geometry"/>
                </mxCell>
                <mxCell id="ucQWb4brr_EQeHKzHJWq-38" value="2m" style="text;html=1;align=center;verticalAlign=middle;whiteSpace=wrap;rounded=0;" vertex="1" parent="1">
                    <mxGeometry x="330" y="280" width="60" height="30" as="geometry"/>
                </mxCell>
                <mxCell id="ucQWb4brr_EQeHKzHJWq-39" value="3m" style="text;html=1;align=center;verticalAlign=middle;whiteSpace=wrap;rounded=0;" vertex="1" parent="1">
                    <mxGeometry x="410" y="280" width="60" height="30" as="geometry"/>
                </mxCell>
                <mxCell id="ucQWb4brr_EQeHKzHJWq-40" value="4m" style="text;html=1;align=center;verticalAlign=middle;whiteSpace=wrap;rounded=0;" vertex="1" parent="1">
                    <mxGeometry x="490" y="280" width="60" height="30" as="geometry"/>
                </mxCell>
                <mxCell id="ucQWb4brr_EQeHKzHJWq-41" value="5m" style="text;html=1;align=center;verticalAlign=middle;whiteSpace=wrap;rounded=0;" vertex="1" parent="1">
                    <mxGeometry x="570" y="280" width="60" height="30" as="geometry"/>
                </mxCell>
                <mxCell id="ucQWb4brr_EQeHKzHJWq-42" value="6m" style="text;html=1;align=center;verticalAlign=middle;whiteSpace=wrap;rounded=0;" vertex="1" parent="1">
                    <mxGeometry x="650" y="280" width="60" height="30" as="geometry"/>
                </mxCell>
                <mxCell id="ucQWb4brr_EQeHKzHJWq-44" value="Scheduler:&lt;div&gt;Turn On&lt;/div&gt;" style="text;html=1;align=center;verticalAlign=middle;whiteSpace=wrap;rounded=0;" vertex="1" parent="1">
                    <mxGeometry x="650" y="170" width="60" height="30" as="geometry"/>
                </mxCell>
                <mxCell id="ucQWb4brr_EQeHKzHJWq-45" value="" style="endArrow=classic;html=1;" edge="1" parent="1">
                    <mxGeometry width="50" height="50" relative="1" as="geometry">
                        <mxPoint x="680" y="230" as="sourcePoint"/>
                        <mxPoint x="680" y="200" as="targetPoint"/>
                    </mxGeometry>
                </mxCell>
                <mxCell id="ucQWb4brr_EQeHKzHJWq-46" value="" style="ellipse;whiteSpace=wrap;html=1;aspect=fixed;fillColor=#000000;" vertex="1" parent="1">
                    <mxGeometry x="695" y="258.5" width="2.5" height="2.5" as="geometry"/>
                </mxCell>
                <mxCell id="ucQWb4brr_EQeHKzHJWq-48" value="" style="ellipse;whiteSpace=wrap;html=1;aspect=fixed;fillColor=#000000;" vertex="1" parent="1">
                    <mxGeometry x="701" y="258.5" width="2.5" height="2.5" as="geometry"/>
                </mxCell>
                <mxCell id="ucQWb4brr_EQeHKzHJWq-49" value="" style="ellipse;whiteSpace=wrap;html=1;aspect=fixed;fillColor=#000000;" vertex="1" parent="1">
                    <mxGeometry x="707" y="258.5" width="2.5" height="2.5" as="geometry"/>
                </mxCell>
            </root>
        </mxGraphModel>
    </diagram>
    <diagram id="4_Vdq7iLtgopUOlystIH" name="system-architecture">
        <mxGraphModel dx="2023" dy="876" grid="1" gridSize="10" guides="1" tooltips="1" connect="1" arrows="1" fold="1" page="1" pageScale="1" pageWidth="850" pageHeight="1100" math="0" shadow="0">
            <root>
                <mxCell id="0"/>
                <mxCell id="1" parent="0"/>
                <mxCell id="25" value="IoT Platform" style="swimlane;whiteSpace=wrap;html=1;gradientColor=none;swimlaneFillColor=default;" parent="1" vertex="1">
                    <mxGeometry x="300" y="80" width="500" height="240" as="geometry"/>
                </mxCell>
                <mxCell id="26" value="IoT Node" style="swimlane;whiteSpace=wrap;html=1;gradientColor=none;swimlaneFillColor=default;" parent="1" vertex="1">
                    <mxGeometry x="300" y="360" width="500" height="240" as="geometry"/>
                </mxCell>
                <mxCell id="13" value="&lt;b&gt;ESP32&lt;/b&gt;&lt;div&gt;(Handle connection &amp;amp; Data collection)&lt;/div&gt;" style="rounded=0;whiteSpace=wrap;html=1;" parent="26" vertex="1">
                    <mxGeometry x="180" y="60" width="140" height="60" as="geometry"/>
                </mxCell>
                <mxCell id="14" value="&lt;b&gt;DHT20&lt;/b&gt;&lt;div&gt;(Measure temperature &amp;amp; humidity)&lt;/div&gt;" style="rounded=0;whiteSpace=wrap;html=1;" parent="26" vertex="1">
                    <mxGeometry x="40" y="140" width="140" height="60" as="geometry"/>
                </mxCell>
                <mxCell id="15" value="&lt;b&gt;LED&lt;/b&gt;&lt;div&gt;(Display DHT20&lt;/div&gt;&lt;div&gt;active status)&lt;/div&gt;" style="rounded=0;whiteSpace=wrap;html=1;" parent="26" vertex="1">
                    <mxGeometry x="320" y="140" width="140" height="60" as="geometry"/>
                </mxCell>
                <mxCell id="17" style="edgeStyle=orthogonalEdgeStyle;html=1;exitX=0;exitY=0.5;exitDx=0;exitDy=0;startArrow=classic;startFill=1;" parent="26" source="13" target="14" edge="1">
                    <mxGeometry relative="1" as="geometry"/>
                </mxCell>
                <mxCell id="19" value="I2C" style="edgeLabel;html=1;align=center;verticalAlign=middle;resizable=0;points=[];" parent="17" vertex="1" connectable="0">
                    <mxGeometry x="0.383" y="1" relative="1" as="geometry">
                        <mxPoint as="offset"/>
                    </mxGeometry>
                </mxCell>
                <mxCell id="16" style="edgeStyle=orthogonalEdgeStyle;html=1;exitX=1.001;exitY=0.401;exitDx=0;exitDy=0;exitPerimeter=0;" parent="26" source="13" target="15" edge="1">
                    <mxGeometry relative="1" as="geometry"/>
                </mxCell>
                <mxCell id="20" value="Mounted" style="edgeLabel;html=1;align=center;verticalAlign=middle;resizable=0;points=[];" parent="16" vertex="1" connectable="0">
                    <mxGeometry x="-0.2878" y="-2" relative="1" as="geometry">
                        <mxPoint as="offset"/>
                    </mxGeometry>
                </mxCell>
                <mxCell id="3" value="Dashboard" style="rounded=0;whiteSpace=wrap;html=1;" parent="1" vertex="1">
                    <mxGeometry x="340" y="140" width="140" height="60" as="geometry"/>
                </mxCell>
                <mxCell id="10" style="edgeStyle=orthogonalEdgeStyle;html=1;entryX=1;entryY=0.5;entryDx=0;entryDy=0;" parent="1" source="4" target="5" edge="1">
                    <mxGeometry relative="1" as="geometry"/>
                </mxCell>
                <mxCell id="11" value="updateAttribute" style="edgeLabel;html=1;align=center;verticalAlign=middle;resizable=0;points=[];" parent="10" vertex="1" connectable="0">
                    <mxGeometry x="-0.3184" y="1" relative="1" as="geometry">
                        <mxPoint x="-1" y="-11" as="offset"/>
                    </mxGeometry>
                </mxCell>
                <mxCell id="4" value="Scheduler" style="rounded=0;whiteSpace=wrap;html=1;" parent="1" vertex="1">
                    <mxGeometry x="620" y="140" width="140" height="60" as="geometry"/>
                </mxCell>
                <mxCell id="8" style="edgeStyle=orthogonalEdgeStyle;html=1;exitX=0;exitY=0.5;exitDx=0;exitDy=0;" parent="1" source="5" target="3" edge="1">
                    <mxGeometry relative="1" as="geometry"/>
                </mxCell>
                <mxCell id="12" value="provideData" style="edgeLabel;html=1;align=center;verticalAlign=middle;resizable=0;points=[];" parent="8" vertex="1" connectable="0">
                    <mxGeometry x="0.6108" relative="1" as="geometry">
                        <mxPoint y="7" as="offset"/>
                    </mxGeometry>
                </mxCell>
                <mxCell id="5" value="Devices" style="rounded=0;whiteSpace=wrap;html=1;" parent="1" vertex="1">
                    <mxGeometry x="480" y="230" width="140" height="60" as="geometry"/>
                </mxCell>
                <mxCell id="24" value="WiFi" style="edgeStyle=none;html=1;startArrow=classic;startFill=1;dashed=1;" parent="1" target="5" edge="1">
                    <mxGeometry x="0.0916" relative="1" as="geometry">
                        <mxPoint x="550" y="360" as="sourcePoint"/>
                        <mxPoint as="offset"/>
                    </mxGeometry>
                </mxCell>
            </root>
        </mxGraphModel>
    </diagram>
</mxfile>